<?xml version="1.0" encoding="iso-8859-1"?>
<!-- Generator: Adobe Illustrator 19.0.0, SVG Export Plug-In . SVG Version: 6.00 Build 0)  -->
<svg version="1.1" id="Capa_1" xmlns="http://www.w3.org/2000/svg" xmlns:xlink="http://www.w3.org/1999/xlink" x="0px" y="0px"
	 viewBox="0 0 512 512" style="enable-background:new 0 0 512 512;" xml:space="preserve">
<path style="fill:#303C42;" d="M256,0C161.896,0,85.333,76.563,85.333,170.667c0,28.25,7.062,56.26,20.49,81.104L246.667,506.5
	c1.875,3.396,5.448,5.5,9.333,5.5c3.885,0,7.458-2.104,9.333-5.5l140.896-254.813c13.375-24.76,20.438-52.771,20.438-81.021
	C426.667,76.563,350.104,0,256,0z"/>
<path style="fill:#1E88E5;" d="M387.51,241.448L256,479.292l-131.458-237.75c-11.698-21.646-17.875-46.156-17.875-70.875
	c0-82.344,66.99-149.333,149.333-149.333s149.333,66.99,149.333,149.333C405.333,195.385,399.156,219.896,387.51,241.448z"/>
<circle style="fill:#303C42;" cx="256" cy="170.667" r="85.333"/>
<circle style="fill:#FFFFFF;" cx="256" cy="170.667" r="64"/>
<path style="opacity:0.1;enable-background:new    ;" d="M213.333,192c0-35.292,28.708-64,64-64c12.173,0,23.445,3.599,33.145,9.522
	c-11.249-18.419-31.359-30.855-54.478-30.855c-35.292,0-64,28.708-64,64c0,23.118,12.438,43.228,30.857,54.477
	C216.934,215.444,213.333,204.173,213.333,192z"/>
<path style="fill:#303C42;" d="M309.346,341.338c16.735,0,32.038-5.735,44.503-15.074l54.611,54.611
	c2.083,2.083,4.812,3.125,7.541,3.125c2.729,0,5.458-1.042,7.541-3.125c2.087-2.087,3.129-4.823,3.125-7.557
	c-0.004-2.724-1.046-5.446-3.125-7.525l-54.613-54.613c9.339-12.466,15.075-27.772,15.075-44.512
	c0-41.173-33.496-74.669-74.659-74.669c-41.183,0-74.679,33.496-74.679,74.669S268.163,341.338,309.346,341.338z"/>
<path style="opacity:0.7;fill:#BBDEFB;enable-background:new    ;" d="M309.354,213.333c29.417,0,53.333,23.927,53.333,53.344
	c0,14.66-5.949,27.948-15.549,37.599c-0.035,0.034-0.083,0.044-0.117,0.078c-0.034,0.034-0.043,0.081-0.077,0.115
	c-9.648,9.602-22.931,15.552-37.59,15.552c-29.417,0-53.354-23.927-53.354-53.344S279.938,213.333,309.354,213.333z"/>
<path style="opacity:0.2;fill:#FFFFFF;enable-background:new    ;" d="M320.033,277.323c5.888,0,10.675,4.789,10.675,10.677
	c0,2.934-1.191,5.594-3.112,7.526l-0.023,0.016c-0.007,0.007-0.009,0.016-0.015,0.023c-1.931,1.922-4.59,3.113-7.524,3.113
	c-5.888,0-10.679-4.789-10.679-10.677C309.354,282.112,314.145,277.323,320.033,277.323z"/>
<path style="opacity:0.1;enable-background:new    ;" d="M266.688,277.323c0-29.417,23.938-53.344,53.354-53.344
	c11.93,0,22.839,4.074,31.73,10.714c-9.743-12.891-25.047-21.359-42.418-21.359c-29.417,0-53.354,23.927-53.354,53.344
	c0,17.479,8.569,32.88,21.599,42.615C270.846,300.355,266.688,289.361,266.688,277.323z"/>
<linearGradient id="SVGID_1_" gradientUnits="userSpaceOnUse" x1="-33.9033" y1="632.1784" x2="-31.307" y2="629.5811" gradientTransform="matrix(21.3333 0 0 -21.3333 996.3335 13791.667)">
	<stop  offset="0" style="stop-color:#000000;stop-opacity:0.1"/>
	<stop  offset="1" style="stop-color:#000000;stop-opacity:0"/>
</linearGradient>
<path style="fill:url(#SVGID_1_);" d="M309.346,341.337c-20.02,0-38.132-8.016-51.553-20.879l55.398,55.398l21.738-39.315
	C326.948,339.552,318.384,341.337,309.346,341.337z"/>
<linearGradient id="SVGID_2_" gradientUnits="userSpaceOnUse" x1="-43.337" y1="638.8973" x2="-25.8344" y2="630.7365" gradientTransform="matrix(21.3333 0 0 -21.3333 996.3335 13791.667)">
	<stop  offset="0" style="stop-color:#FFFFFF;stop-opacity:0.2"/>
	<stop  offset="1" style="stop-color:#FFFFFF;stop-opacity:0"/>
</linearGradient>
<path style="fill:url(#SVGID_2_);" d="M371.766,314.017l34.464-62.329c13.375-24.76,20.438-52.771,20.438-81.021
	C426.667,76.563,350.104,0,256,0S85.333,76.563,85.333,170.667c0,28.25,7.062,56.26,20.49,81.104L246.667,506.5
	c1.875,3.396,5.448,5.5,9.333,5.5c3.885,0,7.458-2.104,9.333-5.5l95.691-173.06l47.436,47.435c2.082,2.083,4.811,3.125,7.54,3.125
	s5.457-1.042,7.54-3.125c2.087-2.087,3.129-4.823,3.125-7.557c-0.004-2.723-1.046-5.445-3.125-7.525L371.766,314.017z"/>
<g>
</g>
<g>
</g>
<g>
</g>
<g>
</g>
<g>
</g>
<g>
</g>
<g>
</g>
<g>
</g>
<g>
</g>
<g>
</g>
<g>
</g>
<g>
</g>
<g>
</g>
<g>
</g>
<g>
</g>
</svg>
