<?xml version="1.0" encoding="iso-8859-1"?>
<!-- Generator: Adobe Illustrator 19.0.0, SVG Export Plug-In . SVG Version: 6.00 Build 0)  -->
<svg version="1.1" id="Layer_1" xmlns="http://www.w3.org/2000/svg" xmlns:xlink="http://www.w3.org/1999/xlink" x="0px" y="0px"
	 viewBox="0 0 512 512" style="enable-background:new 0 0 512 512;" xml:space="preserve">
<rect y="44.612" style="fill:#67BFFF;" width="471.249" height="322.821"/>
<rect x="235.635" y="44.612" style="fill:#0088FF;" width="235.614" height="322.821"/>
<polygon style="fill:#C9E8FA;" points="471.249,44.612 471.249,45.773 235.635,211.525 235.624,211.534 0.021,44.612 "/>
<polygon style="fill:#B6E0F7;" points="471.249,44.612 471.249,45.773 235.635,211.525 235.635,44.612 "/>
<path style="fill:#67BFFF;" d="M512,361.989c0,58.211-47.188,105.399-105.399,105.399c-0.251,0-0.502,0-0.752-0.01
	c-28.473-0.188-54.251-11.682-73.101-30.208c-16.927-16.635-28.264-38.933-30.929-63.843c-0.397-3.72-0.616-7.502-0.616-11.337
	c0-31.587,13.908-59.925,35.913-79.245c0.24-0.209,0.481-0.418,0.721-0.616c8.579-7.398,18.369-13.427,29.017-17.774
	c12.048-4.901,25.203-7.659,38.996-7.743c0.251-0.01,0.502-0.01,0.752-0.01C464.812,256.601,512,303.777,512,361.989z"/>
<path style="fill:#0088FF;" d="M512,361.989c0,58.211-47.188,105.399-105.399,105.399c-0.251,0-0.502,0-0.752-0.01V256.611
	c0.251-0.01,0.502-0.01,0.752-0.01C464.812,256.601,512,303.777,512,361.989z"/>
<polygon style="fill:#FFFFFF;" points="462.064,347.339 462.064,378.686 422.275,378.686 422.275,420.544 390.928,420.544 
	390.928,378.686 351.138,378.686 351.138,347.339 390.928,347.339 390.928,305.492 422.275,305.492 422.275,347.339 "/>
<polygon style="fill:#D9D8DB;" points="462.064,347.339 462.064,378.686 422.275,378.686 422.275,420.544 405.849,420.544 
	405.849,305.492 422.275,305.492 422.275,347.339 "/>
<g>
</g>
<g>
</g>
<g>
</g>
<g>
</g>
<g>
</g>
<g>
</g>
<g>
</g>
<g>
</g>
<g>
</g>
<g>
</g>
<g>
</g>
<g>
</g>
<g>
</g>
<g>
</g>
<g>
</g>
</svg>
